<svg width="17" height="17" viewBox="0 0 17 17" fill="none" xmlns="http://www.w3.org/2000/svg">
<path d="M16.8343 6.83514H16.1497V6.79987H8.49983V10.1998H13.3035C12.6027 12.179 10.7196 13.5997 8.49983 13.5997C5.68341 13.5997 3.39993 11.3163 3.39993 8.49983C3.39993 5.68341 5.68341 3.39993 8.49983 3.39993C9.79988 3.39993 10.9826 3.89037 11.8832 4.69148L14.2874 2.28731C12.7693 0.872508 10.7387 0 8.49983 0C3.8058 0 0 3.8058 0 8.49983C0 13.1939 3.8058 16.9997 8.49983 16.9997C13.1939 16.9997 16.9997 13.1939 16.9997 8.49983C16.9997 7.92992 16.941 7.37361 16.8343 6.83514Z" fill="#FFC107"/>
</svg>
