<svg width="99" height="67" viewBox="0 0 99 67" fill="none" xmlns="http://www.w3.org/2000/svg">
<path d="M79.8188 25.043C78.4332 17.9851 74.6524 11.6295 69.1229 7.06199C63.593 2.49448 56.6572 -0.00163347 49.5 8.01992e-07C37.5788 8.01992e-07 27.225 6.79978 22.0687 16.7507C16.0058 17.4092 10.399 20.2967 6.32552 24.8578C2.25207 29.4192 -0.000722453 35.3327 1.73794e-07 41.462C1.73794e-07 55.1863 11.0963 66.3393 24.75 66.3393H78.375C89.76 66.3393 98.9999 57.0519 98.9999 45.6083C98.9999 34.6623 90.5437 25.7893 79.8188 25.043ZM78.375 58.047H24.75C15.6337 58.047 8.24987 50.6252 8.24987 41.462C8.24987 32.2992 15.6337 24.8774 24.75 24.8774H27.6788C30.4013 15.2995 39.105 8.29242 49.5 8.29242C62.0401 8.29242 72.1875 18.4921 72.1875 31.0967V33.1697H78.375C85.2223 33.1697 90.75 38.7255 90.75 45.6083C90.75 52.4912 85.2223 58.047 78.375 58.047Z" fill="#F8F8F8"/>
</svg>
