<svg width="180" height="48" viewBox="0 0 180 48" fill="none" xmlns="http://www.w3.org/2000/svg">
<path d="M23.0377 46.0394H16.6806V29.9829H0V24.9585H41.8917V29.9829H23.0377V46.0394ZM33.0895 22.9924L27.4931 22.1186C28.3625 18.1318 29.2318 12.725 29.3948 8.30129C29.4492 6.93594 29.0688 6.49903 27.9821 6.49903H4.56407V1.47457H30.5358C34.4479 1.47457 35.4259 3.44066 35.3716 6.33519C35.3173 10.9774 34.3936 17.3126 33.0895 22.9924ZM82.8383 35.8812L81.969 46.094C81.8603 47.3501 81.0453 47.9509 79.6326 47.9509H57.7902C54.3129 47.9509 51.2158 46.804 51.2158 42.6533V31.4029H79.4153C81.969 31.4029 83.11 32.7136 82.8383 35.8812ZM58.9856 42.981H76.4812V36.3728H57.4099V41.288C57.4099 42.5441 57.8446 42.981 58.9856 42.981ZM88.0544 22.9924V27.853H46.2171V22.9924H88.0544ZM58.0619 11.9058V13.5442C58.0619 14.5273 58.3336 14.8549 59.4746 14.8549H67.7877C72.4062 14.8549 77.5679 14.6365 82.5123 13.3258L83.5447 17.8587C78.9263 19.224 73.9818 19.661 68.1681 19.661H57.7902C53.8238 19.661 51.8678 18.4594 51.8678 14.8003V7.26363H75.5032V4.75139H51.8678V0H81.6973V10.4312C79.0349 11.5235 75.8835 11.9058 73.0582 11.9058H58.0619ZM125.524 29.6006L119.656 28.8907C121.014 22.9378 122.047 16.7664 122.047 9.17511C122.047 8.19206 121.721 7.75515 120.634 7.75515H96.8899V2.62146H123.133C126.719 2.62146 128.404 4.25987 128.349 7.64593C128.241 14.5273 127.154 22.5009 125.524 29.6006ZM92.3258 34.0244H134.217V39.1034H92.3258V34.0244ZM157.234 26.3784H147.073C143.433 26.3784 140.879 25.0131 140.879 21.4632V11.5235H156.745V5.89828H140.879V1.14689H162.885V14.5273C160.657 15.5649 158.266 16.2203 155.386 16.2203H147.019V20.0432C147.019 20.9717 147.399 21.5724 148.486 21.5724H157.071C161.798 21.5724 167.666 20.644 172.121 17.9679V0.382292H178.316V32.5498H172.121V23.4293C167.938 25.5046 162.341 26.3784 157.234 26.3784ZM153.322 31.2937V40.7965C153.322 41.8887 153.811 42.3803 154.789 42.3803H166.905C171.252 42.3803 174.566 41.8887 178.696 40.6326L180 45.3294C175.218 46.8586 172.719 47.4047 166.96 47.4047H153.159C149.41 47.4047 147.128 45.7663 147.128 42.271V31.2937H153.322Z" fill="url(#paint0_linear_123_26)"/>
<defs>
<linearGradient id="paint0_linear_123_26" x1="201.272" y1="23.5385" x2="-104.811" y2="23.5385" gradientUnits="userSpaceOnUse">
<stop stop-color="#326AFF"/>
<stop offset="0.341262" stop-color="#7CA0FF"/>
<stop offset="0.73903" stop-color="#E9EFFF"/>
</linearGradient>
</defs>
</svg>
