<svg width="99" height="67" viewBox="0 0 99 67" fill="none" xmlns="http://www.w3.org/2000/svg">
<path d="M79.8188 25.0429C78.4332 17.985 74.6524 11.6295 69.1229 7.06188C63.593 2.49427 56.6572 -0.00181487 49.5 9.90058e-07C37.5788 9.90058e-07 27.225 6.79967 22.0687 16.7506C16.0059 17.409 10.3991 20.2966 6.32562 24.8577C2.25213 29.4191 -0.000708268 35.3327 1.67032e-07 41.4619C1.67032e-07 55.1862 11.0962 66.3392 24.75 66.3392H78.375C89.76 66.3392 98.9999 57.0518 98.9999 45.6083C98.9999 34.6622 90.5437 25.7892 79.8188 25.0429ZM78.375 58.0469H24.75C15.6337 58.0469 8.24998 50.6251 8.24998 41.4619C8.24998 32.2991 15.6337 24.8773 24.75 24.8773H27.6787C30.4012 15.2994 39.105 8.29231 49.5 8.29231C62.0401 8.29231 72.1876 18.492 72.1876 31.0966V33.1696H78.375C85.2223 33.1696 90.75 38.7254 90.75 45.6083C90.75 52.4911 85.2223 58.0469 78.375 58.0469Z" fill="#F8F8F8"/>
</svg>
