<svg width="10" height="50" viewBox="0 0 10 50" fill="none" xmlns="http://www.w3.org/2000/svg">
<path d="M3.46273 49.5823C3.48511 49.6056 3.50822 49.6284 3.53206 49.6505C3.80907 49.9083 4.08316 50.0013 4.33412 49.9998C4.66836 49.9979 5.0437 49.8279 5.40987 49.322C5.77567 48.816 6.09448 47.9744 6.18254 46.7829C6.80627 38.3472 7.43038 30.2391 7.73637 24.0937C7.81049 22.6082 7.86514 21.24 7.89743 20.0082C5.39151 21.1581 2.84157 21.16 0.620365 20.155C0.659256 21.3598 0.719436 22.6908 0.798686 24.1346C1.13623 30.276 1.80179 38.3767 2.46881 46.805C2.56274 47.9951 2.88596 48.8329 3.2547 49.3345C3.31817 49.4219 3.38789 49.5045 3.46273 49.5823ZM0.58037 18.5073C2.75571 19.8036 5.28438 19.8585 7.92679 18.3719C7.93266 17.7162 7.93083 17.1085 7.91799 16.5671C7.89781 15.7163 7.85195 15.0141 7.78407 14.4949C6.70282 15.3866 5.32951 15.8284 4.00464 15.838C2.79424 15.8465 1.58018 15.4803 0.682015 14.7092C0.628081 15.2085 0.592856 15.8498 0.578914 16.6102C0.568274 17.1767 0.570097 17.8162 0.58037 18.5073ZM1.51412 13.4977C2.11657 14.0822 3.01107 14.3861 3.99913 14.3791C5.31666 14.3695 6.70794 13.7798 7.52869 12.6712C9.34778 10.214 9.91392 7.5235 9.32138 5.16894C8.79781 3.0877 7.36689 1.23669 4.93655 0C6.09339 1.61145 5.8472 4.41869 4.81144 5.66666C4.93252 4.32214 4.83896 2.88723 4.42033 1.64645C3.70084 3.51125 2.36092 4.79127 1.39561 5.98669C0.704009 6.84334 0.19733 7.64874 0.0461675 8.66227C-0.104628 9.67559 0.0876256 10.9674 1.01698 12.8206C1.14356 13.0728 1.31159 13.3019 1.51412 13.4977Z" fill="#4376FF"/>
</svg>
