<svg width="22" height="16" viewBox="0 0 22 16" fill="none" xmlns="http://www.w3.org/2000/svg">
<path d="M6.6 8C8.72781 8 10.45 6.21071 10.45 4C10.45 1.78929 8.72781 0 6.6 0C4.47219 0 2.75 1.78929 2.75 4C2.75 6.21071 4.47219 8 6.6 8ZM9.24 9.14286H8.95469C8.23969 9.5 7.44563 9.71429 6.6 9.71429C5.75437 9.71429 4.96375 9.5 4.24531 9.14286H3.96C1.77375 9.14286 0 10.9857 0 13.2571V14.2857C0 15.2321 0.739062 16 1.65 16H11.55C12.4609 16 13.2 15.2321 13.2 14.2857V13.2571C13.2 10.9857 11.4262 9.14286 9.24 9.14286ZM16.5 8C18.3219 8 19.8 6.46429 19.8 4.57143C19.8 2.67857 18.3219 1.14286 16.5 1.14286C14.6781 1.14286 13.2 2.67857 13.2 4.57143C13.2 6.46429 14.6781 8 16.5 8ZM18.15 9.14286H18.0194C17.5416 9.31429 17.0363 9.42857 16.5 9.42857C15.9637 9.42857 15.4584 9.31429 14.9806 9.14286H14.85C14.1488 9.14286 13.5025 9.35357 12.9353 9.69286C13.7741 10.6321 14.3 11.8786 14.3 13.2571V14.6286C14.3 14.7071 14.2828 14.7821 14.2794 14.8571H20.35C21.2609 14.8571 22 14.0893 22 13.1429C22 10.9321 20.2778 9.14286 18.15 9.14286Z" fill="#686868"/>
</svg>
