<svg width="10" height="14" viewBox="0 0 10 14" fill="none" xmlns="http://www.w3.org/2000/svg">
<path d="M5.00033 0C2.254 0 0 2.11737 0 4.7C0 5.70088 0.34 6.63359 0.913333 7.3976L0.892833 7.36745L4.09383 12.582L4.11 12.602C4.239 12.7606 4.36667 12.8885 4.52117 12.9848C4.67567 13.081 4.8735 13.1418 5.06783 13.1235C5.45617 13.0867 5.68183 12.8338 5.89033 12.5674L5.90333 12.5509L9.43233 6.89088L9.43517 6.88617C9.51967 6.74244 9.58084 6.59746 9.63317 6.45704C9.87519 5.89932 9.99978 5.30256 10 4.7C10 2.11737 7.74667 0 5.00033 0ZM5.00033 0.785375C7.29267 0.785375 9.16667 2.54744 9.16667 4.7C9.16682 5.20278 9.06264 5.70073 8.86 6.16582L8.85583 6.17556L8.85217 6.18577C8.80833 6.30468 8.76067 6.41259 8.70567 6.5062L5.2125 12.1084C5.058 12.3002 4.95 12.3456 4.98467 12.3422C5.0025 12.3406 5.019 12.3538 4.98083 12.3299C4.94433 12.3071 4.86983 12.2404 4.7815 12.1342L1.605 6.95842L1.59383 6.94381C1.115 6.30609 0.833333 5.53375 0.833333 4.7C0.833333 2.5476 2.708 0.785375 5.00033 0.785375ZM5.00033 2.01841C3.42333 2.01841 2.14783 3.21627 2.14783 4.7C2.14783 6.18373 3.4235 7.38158 5.00033 7.38158C6.57717 7.38158 7.85217 6.18357 7.85217 4.7C7.85217 3.21627 6.57717 2.01841 5.00033 2.01841ZM5.00033 2.80379C6.1365 2.80379 7.01883 3.63393 7.01883 4.7C7.01883 5.76607 6.13667 6.59621 5.00033 6.59621C3.864 6.59621 2.98117 5.76591 2.98117 4.7C2.98117 3.63393 3.86417 2.80379 5.00033 2.80379Z" fill="#686868"/>
</svg>
