<svg width="15" height="15" viewBox="0 0 15 15" fill="none" xmlns="http://www.w3.org/2000/svg">
<path fill-rule="evenodd" clip-rule="evenodd" d="M11.3651 10.2436C12.3545 8.96748 12.8208 7.3622 12.6691 5.75433C12.5175 4.14647 11.7592 2.6568 10.5486 1.58839C9.33795 0.519983 7.76594 -0.0469099 6.15235 0.00304145C4.53875 0.0529928 3.00478 0.716036 1.86252 1.85728C0.719253 2.99932 0.0543065 4.53449 0.00318192 6.14995C-0.0479427 7.76542 0.518602 9.33959 1.58736 10.5517C2.65613 11.7638 4.14667 12.5226 5.75525 12.6734C7.36382 12.8243 8.96937 12.3559 10.2447 11.3636L10.2788 11.3994L13.6447 14.7674C13.7184 14.8411 13.806 14.8996 13.9023 14.9395C13.9986 14.9795 14.1018 15 14.2061 15C14.3103 15 14.4136 14.9795 14.5099 14.9395C14.6062 14.8996 14.6937 14.8411 14.7675 14.7674C14.8412 14.6936 14.8997 14.6061 14.9396 14.5097C14.9795 14.4134 15 14.3101 15 14.2058C15 14.1015 14.9795 13.9982 14.9396 13.9018C14.8997 13.8055 14.8412 13.7179 14.7675 13.6442L11.4008 10.2769C11.3892 10.2655 11.3773 10.2544 11.3651 10.2436ZM9.71784 2.98049C10.1658 3.42142 10.5221 3.94672 10.7662 4.52609C11.0102 5.10546 11.1372 5.72744 11.1397 6.35614C11.1423 6.98485 11.0204 7.60784 10.7811 8.18918C10.5418 8.77052 10.1898 9.29871 9.74537 9.74328C9.30098 10.1878 8.773 10.54 8.19189 10.7794C7.61078 11.0188 6.98804 11.1408 6.35959 11.1382C5.73113 11.1356 5.1094 11.0086 4.53026 10.7645C3.95112 10.5203 3.42603 10.1639 2.98527 9.71574C2.10446 8.8201 1.61309 7.61256 1.61821 6.35614C1.62332 5.09973 2.1245 3.89623 3.01258 3.0078C3.90065 2.11937 5.10367 1.61799 6.35959 1.61288C7.6155 1.60776 8.82257 2.09932 9.71784 2.98049Z" fill="#6A6A6A"/>
</svg>
