<svg width="17" height="17" viewBox="0 0 17 17" fill="none" xmlns="http://www.w3.org/2000/svg">
<path d="M12.25 2.66667H14.125C14.6223 2.66667 15.0992 2.84226 15.4508 3.15482C15.8025 3.46738 16 3.89131 16 4.33333V6H1V4.33333C1 3.89131 1.19754 3.46738 1.54917 3.15482C1.90081 2.84226 2.37772 2.66667 2.875 2.66667H4.75M12.25 2.66667V1M12.25 2.66667H4.75M4.75 2.66667V1M1 6.41667V14.3333C1 14.7754 1.19754 15.1993 1.54917 15.5118C1.90081 15.8244 2.37772 16 2.875 16H14.125C14.6223 16 15.0992 15.8244 15.4508 15.5118C15.8025 15.1993 16 14.7754 16 14.3333V6.41667" stroke="#686868" stroke-width="2" stroke-linecap="round" stroke-linejoin="round"/>
</svg>
