<svg width="26" height="19" viewBox="0 0 26 19" fill="none" xmlns="http://www.w3.org/2000/svg">
<path d="M20.9624 7.02543C20.5985 5.04542 19.6056 3.26247 18.1534 1.98113C16.7011 0.69979 14.8796 -0.000456237 12.9999 2.23019e-07C9.8691 2.23019e-07 7.14995 1.90757 5.7958 4.69913C4.20356 4.88387 2.73107 5.69386 1.66127 6.97346C0.591465 8.25306 -0.000186009 9.91199 4.38669e-08 11.6315C4.38669e-08 15.4815 2.91415 18.6104 6.49996 18.6104H20.5832C23.5732 18.6104 25.9998 16.0049 25.9998 12.7947C25.9998 9.72394 23.779 7.2348 20.9624 7.02543ZM20.5832 16.2841H6.49996C4.10581 16.2841 2.16665 14.2021 2.16665 11.6315C2.16665 9.06094 4.10581 6.9789 6.49996 6.9789H7.26912C7.98412 4.29203 10.2699 2.3263 12.9999 2.3263C16.2932 2.3263 18.9582 5.18765 18.9582 8.72363V9.3052H20.5832C22.3815 9.3052 23.8332 10.8638 23.8332 12.7947C23.8332 14.7255 22.3815 16.2841 20.5832 16.2841Z" fill="#6A6A6A"/>
</svg>
