<svg width="8" height="8" viewBox="0 0 8 8" fill="none" xmlns="http://www.w3.org/2000/svg">
<path d="M4.87645 0.875186C4.87645 0.394692 4.48461 0 4.00126 0C3.5179 0 3.12321 0.394692 3.12607 0.875186V3.12607H0.875186C0.394692 3.12607 0 3.5179 0 4.00126C0 4.48175 0.394692 4.87645 0.875186 4.87645H3.12607V7.12447C3.12607 7.60497 3.5179 7.99966 4.00126 7.99966C4.48175 7.99966 4.87645 7.60783 4.87645 7.12447V4.87645H7.12447C7.60497 4.87645 7.99966 4.48461 7.99966 4.00126C7.99966 3.52077 7.60783 3.12607 7.12447 3.12607H4.87645V0.875186Z" fill="#6A6A6A"/>
</svg>
