<svg width="50" height="50" viewBox="0 0 50 50" fill="none" xmlns="http://www.w3.org/2000/svg">
<g filter="url(#filter0_d_124_182)">
<path d="M3 11C3 5.47715 7.47715 1 13 1H33C38.5228 1 43 5.47715 43 11V31C43 36.5228 38.5228 41 33 41H13C7.47715 41 3 36.5228 3 31V11Z" fill="white"/>
<path d="M3.5 11C3.5 5.7533 7.7533 1.5 13 1.5H33C38.2467 1.5 42.5 5.7533 42.5 11V31C42.5 36.2467 38.2467 40.5 33 40.5H13C7.7533 40.5 3.5 36.2467 3.5 31V11Z" stroke="#F6F6F6"/>
</g>
<defs>
<filter id="filter0_d_124_182" x="0" y="0" width="50" height="50" filterUnits="userSpaceOnUse" color-interpolation-filters="sRGB">
<feFlood flood-opacity="0" result="BackgroundImageFix"/>
<feColorMatrix in="SourceAlpha" type="matrix" values="0 0 0 0 0 0 0 0 0 0 0 0 0 0 0 0 0 0 127 0" result="hardAlpha"/>
<feOffset dx="2" dy="4"/>
<feGaussianBlur stdDeviation="2.5"/>
<feComposite in2="hardAlpha" operator="out"/>
<feColorMatrix type="matrix" values="0 0 0 0 0 0 0 0 0 0 0 0 0 0 0 0 0 0 0.1 0"/>
<feBlend mode="normal" in2="BackgroundImageFix" result="effect1_dropShadow_124_182"/>
<feBlend mode="normal" in="SourceGraphic" in2="effect1_dropShadow_124_182" result="shape"/>
</filter>
</defs>
</svg>
