<svg width="19" height="18" viewBox="0 0 19 18" fill="none" xmlns="http://www.w3.org/2000/svg">
<path fill-rule="evenodd" clip-rule="evenodd" d="M14.2636 12.2922C15.5053 10.7609 16.0906 8.83456 15.9002 6.90514C15.7098 4.97571 14.7582 3.18813 13.2388 1.90605C11.7194 0.623974 9.74651 -0.0562913 7.7214 0.0036497C5.69628 0.0635907 3.7711 0.859235 2.33752 2.22872C0.902686 3.59915 0.0681565 5.44134 0.00399342 7.37988C-0.0601696 9.31842 0.650863 11.2074 1.9922 12.6619C3.33353 14.1164 5.20421 15.027 7.22303 15.208C9.24184 15.389 11.2569 14.8269 12.8574 13.6362L12.9003 13.6791L17.1246 17.7207C17.2171 17.8092 17.3269 17.8794 17.4478 17.9273C17.5687 17.9752 17.6983 17.9998 17.8291 17.9998C17.96 17.9998 18.0895 17.9752 18.2104 17.9273C18.3313 17.8794 18.4411 17.8092 18.5337 17.7207C18.6262 17.6322 18.6996 17.5271 18.7497 17.4115C18.7997 17.2959 18.8255 17.1719 18.8255 17.0468C18.8255 16.9216 18.7997 16.7977 18.7497 16.6821C18.6996 16.5664 18.6262 16.4614 18.5337 16.3729L14.3084 12.3322C14.2938 12.3185 14.2789 12.3052 14.2636 12.2922ZM12.1962 3.57655C12.7585 4.10566 13.2056 4.73602 13.5119 5.43126C13.8182 6.1265 13.9775 6.87287 13.9807 7.6273C13.984 8.38174 13.831 9.12933 13.5306 9.82693C13.2303 10.5245 12.7885 11.1584 12.2308 11.6918C11.673 12.2253 11.0104 12.6479 10.2811 12.9352C9.55179 13.2225 8.77023 13.3688 7.98149 13.3657C7.19276 13.3626 6.41247 13.2102 5.68563 12.9173C4.95879 12.6243 4.29978 12.1966 3.74662 11.6588C2.64117 10.584 2.02449 9.13499 2.0309 7.6273C2.03732 6.11962 2.66632 4.67543 3.78088 3.60933C4.89545 2.54322 6.40528 1.94157 7.98149 1.93543C9.55771 1.92929 11.0726 2.51916 12.1962 3.57655Z" fill="#6A6A6A"/>
</svg>
